<svg width="96" height="96" viewBox="0 0 96 96" fill="none" xmlns="http://www.w3.org/2000/svg">
  <rect x="4" y="4" width="88" height="88" rx="22" fill="#FBFCFA"/>
  <rect x="4" y="4" width="88" height="88" rx="22" stroke="#BFE2DB" stroke-width="4"/>
  <rect x="18" y="20" width="34" height="28" rx="7" fill="#117B79"/>
  <rect x="25" y="28" width="8" height="8" rx="4" fill="#FBFCFA"/>
  <rect x="37" y="28" width="8" height="8" rx="4" fill="#FBFCFA"/>
  <path d="M28 43C31.9 46 38.1 46 42 43" stroke="#FBFCFA" stroke-width="3" stroke-linecap="round"/>
  <rect x="49" y="30" width="29" height="38" rx="8" fill="#E66F4E"/>
  <rect x="55" y="38" width="17" height="4" rx="2" fill="#FBFCFA"/>
  <rect x="55" y="47" width="13" height="4" rx="2" fill="#FBFCFA"/>
  <rect x="55" y="56" width="18" height="4" rx="2" fill="#FBFCFA"/>
  <path d="M27 62H42" stroke="#D99A24" stroke-width="5" stroke-linecap="round"/>
  <path d="M24 72H61" stroke="#356FC4" stroke-width="5" stroke-linecap="round"/>
  <path d="M67 14L70 22L78 25L70 28L67 36L64 28L56 25L64 22L67 14Z" fill="#D99A24"/>
</svg>